<svg id="Layer_1" data-name="Layer 1" xmlns="http://www.w3.org/2000/svg" viewBox="0 0 2000 340"><defs><style>.cls-1{fill:#fff;}</style></defs><title>dub-culture-2-white</title><path class="cls-1" d="M318.88,140.19c0,46.05-30.76,67.72-63.46,67.72h-95a5.67,5.67,0,0,1-5.66-5.66V80.13a5.66,5.66,0,0,1,5.66-5.66h95C288.12,74.47,318.88,94.14,318.88,140.19Zm-46.88,1c0-25.16-17.8-35.47-28.64-35.47h-37a5.65,5.65,0,0,0-5.66,5.66V171a5.65,5.65,0,0,0,5.66,5.65h37C254.2,176.65,272,166.34,272,141.19Z"/><path class="cls-1" d="M410.82,207.84c-59.59,0-85.13-22.64-85.13-69.85V81.13a5.65,5.65,0,0,1,5.66-5.66h35.59a5.65,5.65,0,0,1,5.66,5.66V138c0,14.52,8.62,34.07,38.22,34.07S449,152.31,449,138V81.13a5.66,5.66,0,0,1,5.66-5.66h35.6A5.66,5.66,0,0,1,496,81.13V138C496,185,470.22,207.84,410.82,207.84Z"/><path class="cls-1" d="M670.32,167.86c0,22.25-12,40-42.79,40H513a9.32,9.32,0,0,1-9.32-9.32V83.79A9.32,9.32,0,0,1,513,74.47H619.74c30.77,0,40.25,13.93,40.25,34.44,0,8.71-4.07,15.61-10.64,23.34C661.15,140.77,670.32,153.15,670.32,167.86ZM549.87,120.93a5.65,5.65,0,0,0,5.65,5.66H603a11.89,11.89,0,0,0,0-23.75H555.52a5.65,5.65,0,0,0-5.65,5.65ZM623.6,164a11.76,11.76,0,0,0-11.22-11.69H555.52a5.65,5.65,0,0,0-5.65,5.66v13.19a5.65,5.65,0,0,0,5.65,5.65h56.86C617.41,176.8,623.6,171.15,623.6,164Z"/><path class="cls-1" d="M1009.55,208.1c-58,0-82.85-22-82.85-68V80.92a5.51,5.51,0,0,1,5.51-5.5h34.64a5.5,5.5,0,0,1,5.5,5.5v59.21c0,14.12,8.39,33.15,37.2,33.15s37.19-19.22,37.19-33.15V80.92a5.51,5.51,0,0,1,5.51-5.5h34.64a5.5,5.5,0,0,1,5.5,5.5v59.21C1092.39,185.88,1067.35,208.1,1009.55,208.1Z"/><path class="cls-1" d="M1454.37,208.1c-58,0-82.85-22-82.85-68V80.92a5.51,5.51,0,0,1,5.51-5.5h34.64a5.5,5.5,0,0,1,5.5,5.5v59.21c0,14.12,8.39,33.15,37.2,33.15s37.19-19.22,37.19-33.15V80.92a5.51,5.51,0,0,1,5.51-5.5h34.64a5.5,5.5,0,0,1,5.5,5.5v59.21C1537.21,185.88,1512.17,208.1,1454.37,208.1Z"/><path class="cls-1" d="M837.12,73.53c53.1,0,80.79,13.78,82.88,55.69H869.55c-1.9-12.51-11.57-16-32.43-16-29.21,0-36.14,12.33-36.14,26.36,0,14.22,7.12,28.74,36.14,28.74,20.86,0,30.53-3.64,32.43-16.34H920c-2.09,42.1-29.59,56.07-82.88,56.07-58.42,0-83.45-22.19-83.45-68.47C753.67,93.53,778.7,73.53,837.12,73.53Z"/><path class="cls-1" d="M1236.74,172.27v31.11a4.81,4.81,0,0,1-4.81,4.81H1105a4.81,4.81,0,0,1-4.81-4.81V80.24a4.81,4.81,0,0,1,4.81-4.81h37.69a4.81,4.81,0,0,1,4.81,4.81v82.42a4.81,4.81,0,0,0,4.81,4.81h79.62A4.8,4.8,0,0,1,1236.74,172.27Z"/><path class="cls-1" d="M1359,116.15h-47.28a4.82,4.82,0,0,0-4.81,4.81v82.42a4.81,4.81,0,0,1-4.81,4.81h-39.69a4.81,4.81,0,0,1-4.81-4.81V121a4.81,4.81,0,0,0-4.81-4.81h-47.28a4.81,4.81,0,0,1-4.81-4.8V80.24a4.81,4.81,0,0,1,4.81-4.81H1359a4.81,4.81,0,0,1,4.81,4.81v31.11A4.8,4.8,0,0,1,1359,116.15Z"/><path class="cls-1" d="M1675.63,170.07l19,30.79a4.81,4.81,0,0,1-4.09,7.33H1653.1a4.81,4.81,0,0,1-4.14-2.36L1635.45,183a12,12,0,0,0-10.35-5.9h-22.16a12,12,0,0,0-12,12v14.27a4.81,4.81,0,0,1-4.81,4.81h-37.29a4.81,4.81,0,0,1-4.81-4.81V87.45a12,12,0,0,1,12-12h92.29c30.16,0,50.83,21.24,50.83,50.83C1699.15,145.6,1690.24,161.53,1675.63,170.07Zm-87.12-41.92a12,12,0,0,0,12,12h43.11c4.93,0,11-4.81,11-13.91s-6.07-13.91-11-13.91h-43.11a12,12,0,0,0-12,12Z"/><path class="cls-1" d="M1749.35,115.77v7.51a2.41,2.41,0,0,0,2.4,2.41h88.64a4.81,4.81,0,0,1,4.81,4.81v22.62a4.81,4.81,0,0,1-4.81,4.81h-88.64a2.41,2.41,0,0,0-2.4,2.41v7.51a2.41,2.41,0,0,0,2.4,2.41h88.64a4.81,4.81,0,0,1,4.81,4.81v28.31a4.81,4.81,0,0,1-4.81,4.81H1704.85V75.43h135.54a4.81,4.81,0,0,1,4.81,4.81v28.31a4.81,4.81,0,0,1-4.81,4.81h-88.64A2.41,2.41,0,0,0,1749.35,115.77Z"/><rect class="cls-1" x="154.88" y="238.86" width="1690" height="27.61"/></svg>