<svg id="Layer_1" data-name="Layer 1" xmlns="http://www.w3.org/2000/svg" viewBox="0 0 2000 340"><defs><style>.cls-1{fill:#fff;}</style></defs><title>dub-culture-3-white_1</title><rect width="2000" height="340"/><path class="cls-1" d="M318.88,169.33c0,46-30.76,67.72-63.46,67.72h-95a5.67,5.67,0,0,1-5.66-5.66V109.26a5.66,5.66,0,0,1,5.66-5.65h95C288.12,103.61,318.88,123.28,318.88,169.33Zm-46.88,1c0-25.16-17.8-35.47-28.64-35.47h-37a5.65,5.65,0,0,0-5.66,5.66v59.62a5.65,5.65,0,0,0,5.66,5.65h37C254.2,205.79,272,195.48,272,170.33Z"/><path class="cls-1" d="M409.82,237c-59.59,0-85.13-22.64-85.13-69.85V110.26a5.65,5.65,0,0,1,5.66-5.65h35.59a5.65,5.65,0,0,1,5.66,5.65v56.87c0,14.51,8.62,34.07,38.22,34.07S448,181.45,448,167.13V110.26a5.66,5.66,0,0,1,5.66-5.65h35.6a5.66,5.66,0,0,1,5.66,5.65v56.87C495,214.15,469.22,237,409.82,237Z"/><path class="cls-1" d="M669.32,197c0,22.26-12,40.06-42.79,40.06H512a9.32,9.32,0,0,1-9.32-9.32V112.92a9.31,9.31,0,0,1,9.32-9.31H618.74c30.77,0,40.25,13.93,40.25,34.44,0,8.7-4.07,15.6-10.64,23.34C660.15,169.91,669.32,182.29,669.32,197ZM548.87,150.07a5.65,5.65,0,0,0,5.65,5.66H602A11.9,11.9,0,0,0,602,132H554.52a5.66,5.66,0,0,0-5.65,5.66Zm73.73,43.06a11.76,11.76,0,0,0-11.22-11.69H554.52a5.65,5.65,0,0,0-5.65,5.66v13.18a5.65,5.65,0,0,0,5.65,5.66h56.86C616.41,205.94,622.6,200.28,622.6,193.13Z"/><path class="cls-1" d="M1009.55,237.24c-58,0-82.85-22-82.85-68V110.06a5.51,5.51,0,0,1,5.51-5.5h34.64a5.5,5.5,0,0,1,5.5,5.5v59.21c0,14.12,8.39,33.15,37.2,33.15s37.19-19.22,37.19-33.15V110.06a5.51,5.51,0,0,1,5.51-5.5h34.64a5.5,5.5,0,0,1,5.5,5.5v59.21C1092.39,215,1067.35,237.24,1009.55,237.24Z"/><path class="cls-1" d="M1454.37,237.24c-58,0-82.85-22-82.85-68V110.06a5.51,5.51,0,0,1,5.51-5.5h34.64a5.5,5.5,0,0,1,5.5,5.5v59.21c0,14.12,8.39,33.15,37.2,33.15s37.19-19.22,37.19-33.15V110.06a5.51,5.51,0,0,1,5.51-5.5h34.64a5.5,5.5,0,0,1,5.5,5.5v59.21C1537.21,215,1512.17,237.24,1454.37,237.24Z"/><path class="cls-1" d="M837.12,102.67c53.1,0,80.79,13.78,82.88,55.69H869.55c-1.9-12.51-11.57-16-32.43-16-29.21,0-36.14,12.32-36.14,26.36,0,14.22,7.12,28.74,36.14,28.74,20.86,0,30.53-3.64,32.43-16.35H920c-2.09,42.11-29.59,56.08-82.88,56.08-58.42,0-83.45-22.19-83.45-68.47C753.67,122.67,778.7,102.67,837.12,102.67Z"/><path class="cls-1" d="M1236.74,201.41v31.11a4.81,4.81,0,0,1-4.81,4.81H1105a4.81,4.81,0,0,1-4.81-4.81V109.38a4.81,4.81,0,0,1,4.81-4.81h37.69a4.81,4.81,0,0,1,4.81,4.81V191.8a4.8,4.8,0,0,0,4.81,4.8h79.62A4.81,4.81,0,0,1,1236.74,201.41Z"/><path class="cls-1" d="M1359,145.29h-47.28a4.82,4.82,0,0,0-4.81,4.81v82.42a4.81,4.81,0,0,1-4.81,4.81h-39.69a4.81,4.81,0,0,1-4.81-4.81V150.1a4.81,4.81,0,0,0-4.81-4.81h-47.28a4.81,4.81,0,0,1-4.81-4.81v-31.1a4.81,4.81,0,0,1,4.81-4.81H1359a4.81,4.81,0,0,1,4.81,4.81v31.1A4.81,4.81,0,0,1,1359,145.29Z"/><path class="cls-1" d="M1675.63,199.21l19,30.79a4.81,4.81,0,0,1-4.09,7.33H1653.1A4.81,4.81,0,0,1,1649,235l-13.51-22.84a12,12,0,0,0-10.35-5.9h-22.16a12,12,0,0,0-12,12v14.27a4.81,4.81,0,0,1-4.81,4.81h-37.29a4.81,4.81,0,0,1-4.81-4.81V116.59a12,12,0,0,1,12-12h92.29c30.16,0,50.83,21.24,50.83,50.83C1699.15,174.74,1690.24,190.67,1675.63,199.21Zm-87.12-41.92a12,12,0,0,0,12,12h43.11c4.93,0,11-4.81,11-13.91s-6.07-13.92-11-13.92h-43.11a12,12,0,0,0-12,12Z"/><path class="cls-1" d="M1749.35,144.9v7.52a2.41,2.41,0,0,0,2.4,2.41h88.64a4.81,4.81,0,0,1,4.81,4.81v22.62a4.81,4.81,0,0,1-4.81,4.81h-88.64a2.41,2.41,0,0,0-2.4,2.4V197a2.41,2.41,0,0,0,2.4,2.41h88.64a4.81,4.81,0,0,1,4.81,4.81v28.31a4.81,4.81,0,0,1-4.81,4.81H1704.85V104.57h135.54a4.81,4.81,0,0,1,4.81,4.81v28.31a4.81,4.81,0,0,1-4.81,4.81h-88.64A2.41,2.41,0,0,0,1749.35,144.9Z"/></svg>