<svg id="Layer_1" data-name="Layer 1" xmlns="http://www.w3.org/2000/svg" viewBox="0 0 2000 2000"><defs><style>.cls-1{fill:#fff;}</style></defs><title>dub-culture-1-white_1</title><rect width="2000" height="2000"/><path class="cls-1" d="M728.33,823.93c0,134.25-89.68,197.43-185,197.43H266.49a16.49,16.49,0,0,1-16.49-16.5v-356a16.49,16.49,0,0,1,16.49-16.5H543.32C638.65,632.33,728.33,689.68,728.33,823.93Zm-136.67,2.91c0-73.32-51.89-103.39-83.48-103.39H400.27a16.49,16.49,0,0,0-16.49,16.49V913.75a16.49,16.49,0,0,0,16.49,16.49H508.18C539.77,930.24,591.66,900.17,591.66,826.84Z"/><path class="cls-1" d="M995.46,1021.16c-173.73,0-248.19-66-248.19-203.63V651.74a16.49,16.49,0,0,1,16.49-16.49H867.54A16.49,16.49,0,0,1,884,651.74V817.53c0,42.31,25.12,99.33,111.42,99.33s111.43-57.58,111.43-99.33V651.74a16.49,16.49,0,0,1,16.49-16.49h103.78a16.49,16.49,0,0,1,16.5,16.49V817.53C1243.66,954.6,1168.63,1021.16,995.46,1021.16Z"/><path class="cls-1" d="M1750,904.59c0,64.87-35.06,116.77-124.75,116.77H1291.4a27.17,27.17,0,0,1-27.16-27.17V659.5a27.17,27.17,0,0,1,27.16-27.17h311.14c89.69,0,117.32,40.62,117.32,100.41,0,25.38-11.84,45.5-31,68.06C1723.25,825.62,1750,861.72,1750,904.59ZM1398.83,767.8a16.49,16.49,0,0,0,16.49,16.49h138.36c14.67,0,32.72-13.19,32.72-34.63S1568.35,715,1553.68,715H1415.32a16.49,16.49,0,0,0-16.49,16.5Zm215,125.51c0-20.87-18-34.06-32.71-34.06H1415.32a16.49,16.49,0,0,0-16.49,16.49v38.44a16.49,16.49,0,0,0,16.49,16.49h165.76C1595.74,930.67,1613.79,914.18,1613.79,893.31Z"/><rect class="cls-1" x="250.25" y="1318.16" width="1499.75" height="49.51"/><path class="cls-1" d="M600.37,1261C521,1261,487,1230.86,487,1168v-81a7.54,7.54,0,0,1,7.53-7.54h47.43a7.54,7.54,0,0,1,7.53,7.54v81c0,19.33,11.48,45.39,50.92,45.39S651.29,1187,651.29,1168v-81a7.54,7.54,0,0,1,7.53-7.54h47.42a7.54,7.54,0,0,1,7.54,7.54v81C713.78,1230.6,679.5,1261,600.37,1261Z"/><path class="cls-1" d="M1205.62,1261c-79.08,0-113-30-113-92.69v-80.74a7.5,7.5,0,0,1,7.5-7.51h47.24a7.51,7.51,0,0,1,7.51,7.51v80.74c0,19.26,11.44,45.21,50.72,45.21s50.72-26.21,50.72-45.21v-80.74a7.51,7.51,0,0,1,7.51-7.51h47.24a7.5,7.5,0,0,1,7.5,7.51v80.74C1318.59,1230.72,1284.45,1261,1205.62,1261Z"/><path class="cls-1" d="M364.32,1076.8c72.7,0,110.61,18.86,113.46,76.24H408.72c-2.6-17.13-15.84-21.86-44.4-21.86-40,0-49.47,16.88-49.47,36.09,0,19.48,9.74,39.35,49.47,39.35,28.56,0,41.8-5,44.4-22.38h69.06c-2.85,57.64-40.5,76.76-113.46,76.76-80,0-114.24-30.38-114.24-93.73C250.08,1104.18,284.35,1076.8,364.32,1076.8Z"/><path class="cls-1" d="M911.39,1212v42.58a6.57,6.57,0,0,1-6.58,6.58H731a6.58,6.58,0,0,1-6.59-6.58V1086a6.58,6.58,0,0,1,6.59-6.58h51.6a6.58,6.58,0,0,1,6.58,6.58v112.83a6.59,6.59,0,0,0,6.58,6.58h109A6.58,6.58,0,0,1,911.39,1212Z"/><path class="cls-1" d="M1078.78,1135.15h-64.73a6.59,6.59,0,0,0-6.58,6.58v112.83a6.58,6.58,0,0,1-6.59,6.58H946.55a6.58,6.58,0,0,1-6.59-6.58V1141.73a6.59,6.59,0,0,0-6.58-6.58H868.65a6.59,6.59,0,0,1-6.58-6.59V1086a6.58,6.58,0,0,1,6.58-6.58h210.13a6.58,6.58,0,0,1,6.58,6.58v42.58A6.59,6.59,0,0,1,1078.78,1135.15Z"/><path class="cls-1" d="M1512.22,1209l26,42.14a6.58,6.58,0,0,1-5.6,10h-51.25a6.58,6.58,0,0,1-5.67-3.23l-18.49-31.27a16.46,16.46,0,0,0-14.17-8.08H1412.7a16.46,16.46,0,0,0-16.45,16.46v19.54a6.58,6.58,0,0,1-6.59,6.58h-51.05a6.58,6.58,0,0,1-6.58-6.58V1095.85a16.45,16.45,0,0,1,16.46-16.45h126.34c41.29,0,69.59,29.08,69.59,69.58C1544.42,1175.46,1532.21,1197.27,1512.22,1209ZM1393,1151.57a16.45,16.45,0,0,0,16.45,16.46h59c6.75,0,15-6.59,15-19s-8.3-19-15-19h-59a16.45,16.45,0,0,0-16.45,16.46Z"/><path class="cls-1" d="M1613.14,1134.62v10.29a3.29,3.29,0,0,0,3.29,3.29h121.33a6.59,6.59,0,0,1,6.59,6.58v31a6.59,6.59,0,0,1-6.59,6.58H1616.43a3.29,3.29,0,0,0-3.29,3.29v10.29a3.29,3.29,0,0,0,3.29,3.3h121.33a6.58,6.58,0,0,1,6.59,6.58v38.76a6.58,6.58,0,0,1-6.59,6.58H1552.21V1079.4h185.55a6.58,6.58,0,0,1,6.59,6.58v38.76a6.58,6.58,0,0,1-6.59,6.58H1616.43A3.29,3.29,0,0,0,1613.14,1134.62Z"/></svg>